<?xml version="1.0" encoding="utf-8"?>
<!-- Generator: Adobe Illustrator 15.1.0, SVG Export Plug-In . SVG Version: 6.00 Build 0)  -->
<!DOCTYPE svg PUBLIC "-//W3C//DTD SVG 1.1//EN" "http://www.w3.org/Graphics/SVG/1.1/DTD/svg11.dtd">
<svg version="1.1" id="レイヤー_2" xmlns="http://www.w3.org/2000/svg" xmlns:xlink="http://www.w3.org/1999/xlink" x="0px"
	 y="0px" width="295.485px" height="260.987px" viewBox="0 0 295.485 260.987" enable-background="new 0 0 295.485 260.987"
	 xml:space="preserve">
<g>
	<path fill="#FFFFFF" stroke="#000000" stroke-width="4" stroke-miterlimit="10" d="M148.741,241.367
		c-9.667,0-66.269,2.619-66.269,2.619l34.654-30.994c0,0-1.692-1.043,10.307-1.043h21.243h21.243
		c11.999,0,10.307,1.043,10.307,1.043l34.654,30.994c0,0-56.602-2.619-66.269-2.619H148.741z"/>
	<g>
		<g>
			<path fill="none" stroke="#000000" stroke-width="4" stroke-miterlimit="10" d="M148.612,218.316
				c11.334,0,35.327,1.959,35.327,1.959"/>
			<path fill="none" stroke="#000000" stroke-width="4" stroke-miterlimit="10" d="M148.612,226.837c11.001,0,44.06,0,44.06,0"/>
			<path fill="none" stroke="#000000" stroke-width="4" stroke-miterlimit="10" d="M148.612,234.605
				c11.603,0,52.757,0.605,52.757,0.605"/>
		</g>
		<g>
			<path fill="none" stroke="#000000" stroke-width="4" stroke-miterlimit="10" d="M148.612,218.316
				c-11.334,0-35.327,1.959-35.327,1.959"/>
			<path fill="none" stroke="#000000" stroke-width="4" stroke-miterlimit="10" d="M148.612,226.837c-11.001,0-44.06,0-44.06,0"/>
			<path fill="none" stroke="#000000" stroke-width="4" stroke-miterlimit="10" d="M148.612,234.605
				c-11.603,0-52.757,0.605-52.757,0.605"/>
		</g>
	</g>
</g>
<g>
	<path fill="#FFFFFF" stroke="#000000" stroke-width="4" stroke-miterlimit="10" d="M82.344,122.6
		c4.833-8.372,30.866-58.7,30.866-58.7l9.514,45.509c0,0,1.75-0.944-4.25,9.447l-10.621,18.397L97.232,155.65
		c-6,10.391-6.057,8.404-6.057,8.404l-44.17,14.514c0,0,30.57-47.709,35.403-56.081L82.344,122.6z"/>
	<g>
		<g>
			<path fill="none" stroke="#000000" stroke-width="4" stroke-miterlimit="10" d="M102.371,134.013
				c-5.666,9.815-19.359,29.615-19.359,29.615"/>
			<path fill="none" stroke="#000000" stroke-width="4" stroke-miterlimit="10" d="M94.992,129.752
				c-5.501,9.527-22.03,38.157-22.03,38.157"/>
			<path fill="none" stroke="#000000" stroke-width="4" stroke-miterlimit="10" d="M88.264,125.869
				c-5.802,10.048-26.902,45.385-26.902,45.385"/>
		</g>
		<g>
			<path fill="none" stroke="#000000" stroke-width="4" stroke-miterlimit="10" d="M102.371,134.013
				c5.668-9.815,15.968-31.574,15.968-31.574"/>
			<path fill="none" stroke="#000000" stroke-width="4" stroke-miterlimit="10" d="M94.992,129.752
				c5.5-9.527,22.029-38.157,22.029-38.157"/>
			<path fill="none" stroke="#000000" stroke-width="4" stroke-miterlimit="10" d="M88.264,125.869
				c5.802-10.048,25.854-45.992,25.854-45.992"/>
		</g>
	</g>
</g>
<g>
	<path fill="#FFFFFF" stroke="#000000" stroke-width="4" stroke-miterlimit="10" d="M215.728,122.6
		c-4.833-8.372-30.866-58.7-30.866-58.7l-9.514,45.509c0,0-1.75-0.944,4.25,9.447l10.621,18.397l10.621,18.397
		c6,10.391,6.057,8.404,6.057,8.404l44.17,14.514c0,0-30.57-47.708-35.403-56.08L215.728,122.6z"/>
	<g>
		<g>
			<path fill="none" stroke="#000000" stroke-width="4" stroke-miterlimit="10" d="M195.702,134.013
				c5.666,9.815,19.359,29.615,19.359,29.615"/>
			<path fill="none" stroke="#000000" stroke-width="4" stroke-miterlimit="10" d="M203.081,129.752
				c5.501,9.527,22.03,38.157,22.03,38.157"/>
			<path fill="none" stroke="#000000" stroke-width="4" stroke-miterlimit="10" d="M209.808,125.869
				c5.802,10.048,26.902,45.385,26.902,45.385"/>
		</g>
		<g>
			<path fill="none" stroke="#000000" stroke-width="4" stroke-miterlimit="10" d="M195.702,134.013
				c-5.668-9.815-15.968-31.574-15.968-31.574"/>
			<path fill="none" stroke="#000000" stroke-width="4" stroke-miterlimit="10" d="M203.081,129.752
				c-5.5-9.527-22.029-38.157-22.029-38.157"/>
			<path fill="none" stroke="#000000" stroke-width="4" stroke-miterlimit="10" d="M209.808,125.869
				c-5.802-10.048-25.854-45.992-25.854-45.992"/>
		</g>
	</g>
</g>
<g>
	<path fill="#FFFFFF" stroke="#000000" stroke-width="4" stroke-miterlimit="10" d="M124.957,113.202
		c-4.684-3.667-10.811-16.333-10.811-16.333h5.406l-8.649-11.667h5.405l-7.567-11.667h6.126l-4.324-15.667h4.685V47.536h7.567
		l-1.802-12.667l6.486-3l-1.802-9h7.568v-10h9.729l5.766-6.333l5.766,6.333h9.729v10h7.567l-1.801,9l6.486,3l-1.803,12.667h7.568
		v10.333h4.685l-4.325,15.667h6.127l-7.567,11.667h5.405l-8.649,11.667h5.406c0,0-6.126,12.666-10.811,16.333"/>
	<line fill="none" stroke="#000000" stroke-width="4" stroke-miterlimit="10" x1="148.741" y1="6.536" x2="148.741" y2="109.202"/>
	<g>
		<line fill="none" stroke="#000000" stroke-width="4" stroke-miterlimit="10" x1="149.18" y1="31.869" x2="161.793" y2="23.535"/>
		<line fill="none" stroke="#000000" stroke-width="4" stroke-miterlimit="10" x1="149.18" y1="46.535" x2="167.199" y2="34.535"/>
		<line fill="none" stroke="#000000" stroke-width="4" stroke-miterlimit="10" x1="149.18" y1="60.202" x2="169.18" y2="46.535"/>
		<line fill="none" stroke="#000000" stroke-width="4" stroke-miterlimit="10" x1="149.18" y1="75.202" x2="174.766" y2="60.202"/>
		<line fill="none" stroke="#000000" stroke-width="4" stroke-miterlimit="10" x1="149.18" y1="89.202" x2="176.567" y2="72.202"/>
		<line fill="none" stroke="#000000" stroke-width="4" stroke-miterlimit="10" x1="149.18" y1="101.535" x2="174.766" y2="86.535"/>
		
			<line fill="none" stroke="#000000" stroke-width="4" stroke-miterlimit="10" x1="155.486" y1="110.202" x2="174.766" y2="97.535"/>
	</g>
	<g>
		<line fill="none" stroke="#000000" stroke-width="4" stroke-miterlimit="10" x1="149.18" y1="31.869" x2="136.567" y2="23.535"/>
		<line fill="none" stroke="#000000" stroke-width="4" stroke-miterlimit="10" x1="149.18" y1="46.535" x2="131.162" y2="34.535"/>
		<line fill="none" stroke="#000000" stroke-width="4" stroke-miterlimit="10" x1="149.18" y1="60.202" x2="129.18" y2="46.535"/>
		<line fill="none" stroke="#000000" stroke-width="4" stroke-miterlimit="10" x1="149.18" y1="75.202" x2="123.594" y2="60.202"/>
		<line fill="none" stroke="#000000" stroke-width="4" stroke-miterlimit="10" x1="149.18" y1="89.202" x2="121.793" y2="72.202"/>
		<line fill="none" stroke="#000000" stroke-width="4" stroke-miterlimit="10" x1="149.18" y1="101.535" x2="123.594" y2="86.535"/>
		
			<line fill="none" stroke="#000000" stroke-width="4" stroke-miterlimit="10" x1="142.875" y1="110.202" x2="123.594" y2="97.535"/>
	</g>
</g>
<g>
	<path fill="#FFFFFF" stroke="#000000" stroke-width="4" stroke-miterlimit="10" d="M116.323,208.369
		c-0.834,5.889-8.739,17.527-8.739,17.527l-2.703-4.682l-5.779,13.324l-2.702-4.682l-6.32,12.389l-3.062-5.307L75.61,248.517
		l-2.342-4.057l-8.949,5.166l-3.783-6.553l-10.068,7.893l-5.842-4.117l-6.894,6.061l-3.784-6.555l-8.66,5l-4.865-8.426l-8.367-1.826
		l2.602-8.16l-4.864-8.426l8.66-5l-3.784-6.553l8.695-2.94l-0.645-7.117l11.87-4.772l-3.784-6.555l8.949-5.166l-2.342-4.057
		l15.729-4.088l-3.063-5.307l13.887,0.721l-2.702-4.681l14.429,1.656l-2.703-4.682c0,0,14.032-1.027,19.551,1.196"/>
	<line fill="none" stroke="#000000" stroke-width="4" stroke-miterlimit="10" x1="12.055" y1="241.103" x2="100.967" y2="189.771"/>
	<g>
		<line fill="none" stroke="#000000" stroke-width="4" stroke-miterlimit="10" x1="33.774" y1="228.056" x2="20.25" y2="221.3"/>
		<line fill="none" stroke="#000000" stroke-width="4" stroke-miterlimit="10" x1="46.476" y1="220.722" x2="27.075" y2="211.119"/>
		<line fill="none" stroke="#000000" stroke-width="4" stroke-miterlimit="10" x1="58.312" y1="213.89" x2="36.476" y2="203.403"/>
		<line fill="none" stroke="#000000" stroke-width="4" stroke-miterlimit="10" x1="71.302" y1="206.39" x2="45.519" y2="191.732"/>
		<line fill="none" stroke="#000000" stroke-width="4" stroke-miterlimit="10" x1="83.426" y1="199.39" x2="55.01" y2="184.172"/>
		<line fill="none" stroke="#000000" stroke-width="4" stroke-miterlimit="10" x1="94.108" y1="193.223" x2="68.324" y2="178.566"/>
		<line fill="none" stroke="#000000" stroke-width="4" stroke-miterlimit="10" x1="98.46" y1="183.429" x2="77.85" y2="173.066"/>
	</g>
	<g>
		<line fill="none" stroke="#000000" stroke-width="4" stroke-miterlimit="10" x1="33.774" y1="228.056" x2="32.864" y2="243.146"/>
		<line fill="none" stroke="#000000" stroke-width="4" stroke-miterlimit="10" x1="46.476" y1="220.722" x2="45.092" y2="242.328"/>
		<line fill="none" stroke="#000000" stroke-width="4" stroke-miterlimit="10" x1="58.312" y1="213.89" x2="56.476" y2="238.044"/>
		<line fill="none" stroke="#000000" stroke-width="4" stroke-miterlimit="10" x1="71.302" y1="206.39" x2="71.105" y2="236.048"/>
		<line fill="none" stroke="#000000" stroke-width="4" stroke-miterlimit="10" x1="83.426" y1="199.39" x2="82.397" y2="231.607"/>
		<line fill="none" stroke="#000000" stroke-width="4" stroke-miterlimit="10" x1="94.108" y1="193.223" x2="93.91" y2="222.88"/>
		
			<line fill="none" stroke="#000000" stroke-width="4" stroke-miterlimit="10" x1="104.766" y1="194.351" x2="103.436" y2="217.38"/>
	</g>
</g>
<g>
	<path fill="#FFFFFF" stroke="#000000" stroke-width="4" stroke-miterlimit="10" d="M204.738,167.173
		c5.518-2.223,19.551-1.195,19.551-1.195l-2.703,4.682l14.428-1.657l-2.702,4.681l13.888-0.72l-3.063,5.305l15.729,4.088
		l-2.342,4.057l8.949,5.167l-3.784,6.554l11.87,4.772l-0.645,7.117l8.695,2.94l-3.785,6.553l8.66,5l-4.864,8.428l2.603,8.16
		l-8.368,1.826l-4.864,8.426l-8.66-5l-3.784,6.553l-6.894-6.059l-5.842,4.117l-10.068-7.895l-3.783,6.555l-8.949-5.168l-2.343,4.057
		l-11.405-11.578l-3.062,5.307l-6.32-12.387l-2.703,4.68l-5.779-13.324l-2.703,4.682c0,0-7.906-11.637-8.739-17.528"/>
	<line fill="none" stroke="#000000" stroke-width="4" stroke-miterlimit="10" x1="285.222" y1="241.105" x2="196.31" y2="189.771"/>
	<g>
		
			<line fill="none" stroke="#000000" stroke-width="4" stroke-miterlimit="10" x1="263.063" y1="228.818" x2="263.974" y2="243.908"/>
		
			<line fill="none" stroke="#000000" stroke-width="4" stroke-miterlimit="10" x1="250.361" y1="221.484" x2="251.745" y2="243.089"/>
		
			<line fill="none" stroke="#000000" stroke-width="4" stroke-miterlimit="10" x1="238.525" y1="214.652" x2="240.361" y2="238.804"/>
		
			<line fill="none" stroke="#000000" stroke-width="4" stroke-miterlimit="10" x1="225.535" y1="207.151" x2="225.732" y2="236.81"/>
		
			<line fill="none" stroke="#000000" stroke-width="4" stroke-miterlimit="10" x1="213.411" y1="200.151" x2="214.44" y2="232.369"/>
		
			<line fill="none" stroke="#000000" stroke-width="4" stroke-miterlimit="10" x1="202.73" y1="193.984" x2="202.927" y2="223.642"/>
		
			<line fill="none" stroke="#000000" stroke-width="4" stroke-miterlimit="10" x1="192.072" y1="195.112" x2="193.402" y2="218.142"/>
	</g>
	<g>
		
			<line fill="none" stroke="#000000" stroke-width="4" stroke-miterlimit="10" x1="263.063" y1="228.818" x2="276.587" y2="222.062"/>
		
			<line fill="none" stroke="#000000" stroke-width="4" stroke-miterlimit="10" x1="250.361" y1="221.484" x2="269.763" y2="211.88"/>
		
			<line fill="none" stroke="#000000" stroke-width="4" stroke-miterlimit="10" x1="238.525" y1="214.652" x2="260.361" y2="204.164"/>
		
			<line fill="none" stroke="#000000" stroke-width="4" stroke-miterlimit="10" x1="225.535" y1="207.151" x2="251.318" y2="192.493"/>
		
			<line fill="none" stroke="#000000" stroke-width="4" stroke-miterlimit="10" x1="213.411" y1="200.151" x2="241.827" y2="184.934"/>
		
			<line fill="none" stroke="#000000" stroke-width="4" stroke-miterlimit="10" x1="202.73" y1="193.984" x2="228.513" y2="179.326"/>
		
			<line fill="none" stroke="#000000" stroke-width="4" stroke-miterlimit="10" x1="198.376" y1="184.19" x2="218.988" y2="173.826"/>
	</g>
</g>
<g>
	<circle fill="#FFFFFF" stroke="#000000" stroke-width="4" stroke-miterlimit="10" cx="148.805" cy="162.674" r="53.698"/>
	<g>
		<g>
			<polyline fill="none" stroke="#000000" stroke-width="4" stroke-miterlimit="10" points="148.676,158.159 162.742,158.159 
				171.408,147.826 			"/>
			<g>
				<path fill="none" stroke="#000000" stroke-width="4" stroke-miterlimit="10" d="M148.742,207.531
					c12.518,0,23.851-5.184,32.055-13.565c5.127-5.238,9.032-11.726,11.239-18.977h-43.359"/>
				<path fill="none" stroke="#000000" stroke-width="4" stroke-miterlimit="10" d="M148.742,114.899
					c12.518,0,23.851,5.184,32.055,13.566c8.203,8.381,13.277,19.96,13.277,32.75"/>
				
					<line fill="none" stroke="#000000" stroke-width="4" stroke-miterlimit="10" x1="148.676" y1="140.492" x2="189.292" y2="140.492"/>
				
					<line fill="none" stroke="#000000" stroke-width="4" stroke-miterlimit="10" x1="155.046" y1="140.492" x2="163.539" y2="117.429"/>
			</g>
		</g>
		<g>
			<polyline fill="none" stroke="#000000" stroke-width="4" stroke-miterlimit="10" points="148.807,158.159 134.742,158.159 
				126.076,147.826 			"/>
			<g>
				<path fill="none" stroke="#000000" stroke-width="4" stroke-miterlimit="10" d="M148.742,207.531
					c-12.518,0-23.851-5.184-32.055-13.565c-5.127-5.238-9.032-11.726-11.239-18.977h43.359"/>
				<path fill="none" stroke="#000000" stroke-width="4" stroke-miterlimit="10" d="M148.742,114.899
					c-12.518,0-23.851,5.184-32.055,13.566c-8.203,8.381-13.277,19.96-13.277,32.75"/>
				<polyline fill="none" stroke="#000000" stroke-width="4" stroke-miterlimit="10" points="108.192,140.492 148.807,140.492 
					148.807,158.159 				"/>
				
					<line fill="none" stroke="#000000" stroke-width="4" stroke-miterlimit="10" x1="142.437" y1="140.492" x2="133.945" y2="117.429"/>
			</g>
		</g>
		
			<line fill="none" stroke="#000000" stroke-width="4" stroke-miterlimit="10" x1="148.676" y1="169.492" x2="148.807" y2="212.527"/>
	</g>
</g>
</svg>
